<!-- SPDX-License-Identifier: CC-BY-NC-4.0 -->
<svg xmlns="http://www.w3.org/2000/svg" width="780" height="380" viewBox="0 0 780 380" role="img" aria-label="Aggregate throughput by stream count">
<rect width="100%" height="100%" fill="#0d1722"/>
<text x="30" y="40" fill="#f4f7fb" font-size="24" font-family="system-ui,sans-serif" font-weight="700">Aggregate throughput by stream count</text>
<text x="30" y="64" fill="#aabac8" font-size="13" font-family="system-ui,sans-serif">Measured v16b equal-length decode windows; 600 tokens per stream</text>
<text x="30" y="111" fill="#d6e0ea" font-size="16" font-family="system-ui,sans-serif">2 streams</text>
<rect x="150" y="94" width="560" height="25" rx="5" fill="#1d3342"/>
<rect x="150" y="94" width="243.1" height="25" rx="5" fill="#2dc4c5"/>
<text x="403.1" y="112" fill="#ffffff" font-size="14" font-family="system-ui,sans-serif" font-weight="700">73.8 tok/s</text>
<text x="30" y="176" fill="#d6e0ea" font-size="16" font-family="system-ui,sans-serif">3 streams</text>
<rect x="150" y="159" width="560" height="25" rx="5" fill="#1d3342"/>
<rect x="150" y="159" width="379.2" height="25" rx="5" fill="#2dc4c5"/>
<text x="539.2" y="177" fill="#ffffff" font-size="14" font-family="system-ui,sans-serif" font-weight="700">115.1 tok/s</text>
<text x="30" y="241" fill="#d6e0ea" font-size="16" font-family="system-ui,sans-serif">4 streams</text>
<rect x="150" y="224" width="560" height="25" rx="5" fill="#1d3342"/>
<rect x="150" y="224" width="425.3" height="25" rx="5" fill="#2dc4c5"/>
<text x="585.3" y="242" fill="#ffffff" font-size="14" font-family="system-ui,sans-serif" font-weight="700">129.1 tok/s</text>
<text x="30" y="306" fill="#d6e0ea" font-size="16" font-family="system-ui,sans-serif">5 streams</text>
<rect x="150" y="289" width="560" height="25" rx="5" fill="#1d3342"/>
<rect x="150" y="289" width="481.9" height="25" rx="5" fill="#2dc4c5"/>
<text x="641.9" y="307" fill="#ffffff" font-size="14" font-family="system-ui,sans-serif" font-weight="700">146.3 tok/s</text>
</svg>
